<svg xmlns="http://www.w3.org/2000/svg" xmlns:xlink="http://www.w3.org/1999/xlink" width="91.117" height="91.117" viewBox="0 0 91.117 91.117">
  <defs>
    <style>
      .cls-1 {
        fill: #ff5155;
      }

      .cls-2 {
        filter: url(#Icon_metro-cross);
      }
    </style>
    <filter id="Icon_metro-cross" x="0" y="0" width="91.117" height="91.117" filterUnits="userSpaceOnUse">
      <feOffset input="SourceAlpha"/>
      <feGaussianBlur stdDeviation="8" result="blur"/>
      <feFlood flood-opacity="0.161"/>
      <feComposite operator="in" in2="blur"/>
      <feComposite in="SourceGraphic"/>
    </filter>
  </defs>
  <g class="cls-2" transform="matrix(1, 0, 0, 1, 0, 0)">
    <path id="Icon_metro-cross-2" data-name="Icon metro-cross" class="cls-1" d="M45.294,36.567h0l-13.08-13.08,13.08-13.08h0a1.351,1.351,0,0,0,0-1.905L39.115,2.322a1.351,1.351,0,0,0-1.905,0h0L24.129,15.4,11.049,2.322h0a1.351,1.351,0,0,0-1.905,0L2.964,8.5a1.351,1.351,0,0,0,0,1.905h0l13.08,13.08L2.964,36.567h0a1.35,1.35,0,0,0,0,1.905l6.179,6.179a1.351,1.351,0,0,0,1.905,0h0l13.08-13.08,13.08,13.08h0a1.35,1.35,0,0,0,1.9,0l6.179-6.179a1.35,1.35,0,0,0,0-1.905Z" transform="translate(21.43 22.07)"/>
  </g>
</svg>
